<svg
    xmlns="http://www.w3.org/2000/svg"
    viewBox="0 0 298 298"
    id="vector">
    <path
        id="path"
        d="M 288 33 C 288 20 278 9 264 9 L 34 9 C 20 9 10 19 10 33 L 10 229 L 149 298 L 288 228 L 288 33 Z"
        fill="#000000"/>
    <g id="top">
        <path
            id="path_1"
            d="M 61 63 L 30 63 L 30 29 L 61 29 L 61 73 Z"
            fill="#ffffff"/>
        <path
            id="path_2"
            d="M 91 29 L 134 29 L 134 63 L 91 63 L 91 39 Z"
            fill="#ffffff"/>
        <path
            id="path_3"
            d="M 207 63 L 164 63 L 164 29 L 207 29 L 207 73 Z"
            fill="#ffffff"/>
        <path
            id="path_4"
            d="M 268 63 L 237 63 L 237 29 L 268 29 L 268 73 Z"
            fill="#ffffff"/>
    </g>
    <g id="bottom">
        <path
            id="path_5"
            d="M 61 209 L 30 209 L 30 175 L 61 175 L 61 259 Z"
            fill="#ffffff"/>
        <path
            id="path_6"
            d="M 134 209 L 91 209 L 91 175 L 134 175 L 134 259 Z"
            fill="#ffffff"/>
        <path
            id="path_7"
            d="M 207 209 L 164 209 L 164 175 L 207 175 L 207 259 Z"
            fill="#ffffff"/>
        <path
            id="path_8"
            d="M 268 209 L 237 209 L 237 175 L 268 175 L 268 259 Z"
            fill="#ffffff"/>
    </g>
    <path
        id="play"
        d="M 123 146 L 123 91 C 123 83 128 80 135 85 L 175 111 C 181 115 181 122 175 127 L 135 153 C 128 158 123 154 123 146 Z"
        fill="#ffffff"/>
</svg>
